<svg xmlns="http://www.w3.org/2000/svg" width="32" height="16.704" viewBox="0 0 32 16.704">
<g id="down-arrow" transform="translate(0 -117.272)">
	<path id="Path_1" data-name="Path 1" d="M30.8,117.484,16,132.285l-14.8-14.8a.7.7,0,0,0-.983.983L15.51,133.759a.7.7,0,0,0,.983,0l15.294-15.292a.7.7,0,1,0-.966-1l-.017.017Z" fill="#ffc107"/>
	<path id="Path_2" data-name="Path 2" d="M15.981,133.976a.7.7,0,0,1-.492-.2L.195,118.47a.7.7,0,0,1,.983-.984l14.8,14.81,14.8-14.812a.7.7,0,1,1,1,.966l-.017.017-15.294,15.3A.7.7,0,0,1,15.981,133.976Z" transform="translate(0)"/>
</g>
</svg>         