<svg xmlns="http://www.w3.org/2000/svg" width="32" height="16.701" viewBox="0 0 32 16.701">
	<g id="up-arrow" transform="translate(0.001 -117.257)">
		<path id="Path_3" data-name="Path 3" d="M31.668,132.665,16.421,117.459a.694.694,0,0,0-.98,0L.194,132.665a.692.692,0,0,0,.98.977L15.93,118.926l14.756,14.718a.692.692,0,0,0,.98-.977Z" transform="translate(0)" fill="#ffc107"/>
		<path id="Path_4" data-name="Path 4" d="M31.3,133.958a.7.7,0,0,1-.493-.2l-14.816-14.8-14.816,14.8a.7.7,0,0,1-.984-.983L15.5,117.481a.7.7,0,0,1,.984,0L31.8,132.772a.7.7,0,0,1-.493,1.186Z" transform="translate(0)"/>
	</g>
</svg>  